# xmcd
#
# Track frame offsets: 
#        150
#        15337
#        32295
#        46866
#        67605
#        81119
#        93245
#        105620
#        126384
#        140980
#        154036
#        163035
#        176636
#
# Disc length: 2573 seconds
#
# Revision: 0
# Processed by: cddbd v1.5.2PL0 Copyright (c) Steve Scherf et al.
# Submitted via: ExactAudioCopy v0.99pb5
#
DISCID=990a0b0d
DTITLE=Sam Outlaw - Tenderheart
DYEAR=2017
DGENRE=Country
TTITLE0=Everyone's Looking For Home
TTITLE1=Bottomless Mimosas
TTITLE2=Bougainvillea, I Think
TTITLE3=Tenderheart
TTITLE4=Trouble
TTITLE5=She's Playing Hard To Get (Rid Of)
TTITLE6=Two Broken Hearts
TTITLE7=Diamond Ring
TTITLE8=Say It To Me
TTITLE9=All My Life
TTITLE10=Dry In The Sun
TTITLE11=Now She Tells Me
TTITLE12=Look At You Now
EXTD=
EXTT0=
EXTT1=
EXTT2=
EXTT3=
EXTT4=
EXTT5=
EXTT6=
EXTT7=
EXTT8=
EXTT9=
EXTT10=
EXTT11=
EXTT12=
PLAYORDER=
